<?xml version="1.0" encoding="utf-8"?>
<!-- Generator: Adobe Illustrator 16.0.3, SVG Export Plug-In . SVG Version: 6.00 Build 0)  -->
<!DOCTYPE svg PUBLIC "-//W3C//DTD SVG 1.1//EN" "http://www.w3.org/Graphics/SVG/1.1/DTD/svg11.dtd">
<svg version="1.1" id="圖層_1" xmlns="http://www.w3.org/2000/svg" xmlns:xlink="http://www.w3.org/1999/xlink" x="0px" y="0px"
	 width="20px" height="20px" viewBox="0 0 20 20" style="enable-background:new 0 0 20 20;" xml:space="preserve">
<g>
	<path style="fill:#FFFFFF;" d="M18.0596,1H1.9404C1.4199,1,1,1.4209,1,1.9404v16.1191C1,18.5791,1.4199,19,1.9404,19h16.1191
		C18.5791,19,19,18.5791,19,18.0596V1.9404C19,1.4209,18.5791,1,18.0596,1z"/>
	<path style="fill:#005095;" d="M18.0596,1H1.9404C1.4199,1,1,1.4209,1,1.9404v16.1191C1,18.5791,1.4199,19,1.9404,19h16.1191
		C18.5791,19,19,18.5791,19,18.0596V1.9404C19,1.4209,18.5791,1,18.0596,1z M12.8027,10h-1.7988v6.5215H8.3047V10H6.9551V7.7568
		h1.3496V6.4063c0-1.832,0.7617-2.9248,2.9238-2.9248h1.7998v2.25h-1.125c-0.8418,0-0.8975,0.3135-0.8975,0.8994l-0.002,1.126h2.04
		L12.8027,10z"/>
</g>
</svg>
