<?xml version="1.0" encoding="utf-8"?>
<!-- Generator: Adobe Illustrator 16.0.3, SVG Export Plug-In . SVG Version: 6.00 Build 0)  -->
<!DOCTYPE svg PUBLIC "-//W3C//DTD SVG 1.1//EN" "http://www.w3.org/Graphics/SVG/1.1/DTD/svg11.dtd">
<svg version="1.1" id="圖層_1" xmlns="http://www.w3.org/2000/svg" xmlns:xlink="http://www.w3.org/1999/xlink" x="0px" y="0px"
	 width="20px" height="20px" viewBox="0 0 20 20" style="enable-background:new 0 0 20 20;" xml:space="preserve">
<path style="fill:#C12917;" d="M19,17.9668C19,18.5371,18.5371,19,17.9668,19H2.0332C1.4629,19,1,18.5371,1,17.9668V2.0332
	C1,1.4629,1.4629,1,2.0332,1h15.9336C18.5371,1,19,1.4629,19,2.0332V17.9668z"/>
<g>
	<g>
		<rect x="13.8955" y="7.4424" style="fill:#FFFFFF;" width="0.9248" height="4.2139"/>
		<rect x="12.251" y="9.0869" style="fill:#FFFFFF;" width="4.2139" height="0.9248"/>
	</g>
	<path style="fill:#FFFFFF;" d="M9.6816,10.3789c0,0-0.9795-0.5439,0.1631-1.6045c0,0,1.2783-0.625,1.4141-2.4199
		c0,0-0.1357-1.3594-1.0605-1.9844h1.0059L12.251,3.5H7.9678c0,0-3.2617,0.1084-3.5605,2.8818c0,0-0.4355,2.2295,2.3379,2.9639
		H7.751c0,0-0.4355,1.2783,0.3809,1.8213H7.3428c0,0-3.752,0.4355-3.8066,2.7734c0,0-0.1348,2.6104,3.6445,2.5557
		c0,0,4.1191,0.2451,4.5938-3.208C11.7744,13.2881,12.1006,11.9834,9.6816,10.3789z M6.0928,7.0615
		C5.3037,4.7773,6.9893,4.2344,6.9893,4.2344c1.8047-0.4258,2.4473,2.0117,2.4473,2.0117c0.6797,2.501-1.1143,2.6641-1.1143,2.6641
		C6.8818,9.291,6.0928,7.0615,6.0928,7.0615z M10.5791,14.1309c-0.3271,1.9307-3.2363,1.5498-3.2363,1.5498
		c-2.2275-0.4043-2.2832-2.0127-2.2832-2.0127c0.082-2.2021,3.6426-2.0117,3.6426-2.0117l0.7617,0.5713
		C10.7959,13.2881,10.5791,14.1309,10.5791,14.1309z"/>
</g>
</svg>
