<?xml version="1.0" encoding="utf-8"?>
<!-- Generator: Adobe Illustrator 16.0.3, SVG Export Plug-In . SVG Version: 6.00 Build 0)  -->
<!DOCTYPE svg PUBLIC "-//W3C//DTD SVG 1.1//EN" "http://www.w3.org/Graphics/SVG/1.1/DTD/svg11.dtd">
<svg version="1.1" id="圖層_1" xmlns="http://www.w3.org/2000/svg" xmlns:xlink="http://www.w3.org/1999/xlink" x="0px" y="0px"
	 width="50px" height="70px" viewBox="0 0 50 70" style="enable-background:new 0 0 50 70;" xml:space="preserve">
<g>
	<path style="opacity:0.75;fill:none;stroke:#0071BE;stroke-width:1.1;stroke-miterlimit:10;" d="M36.5654,32.8213
		c0,2.1055-1.708,3.8145-3.8154,3.8145H5.5654c-2.1074,0-3.8154-1.709-3.8154-3.8145V13.7432c0-2.1064,1.708-3.8154,3.8154-3.8154
		H32.75c2.1074,0,3.8154,1.709,3.8154,3.8154V32.8213z"/>
	<g style="opacity:0.3;">
		<linearGradient id="SVGID_1_" gradientUnits="userSpaceOnUse" x1="19.1582" y1="60.0723" x2="19.1582" y2="37.1367">
			<stop  offset="0" style="stop-color:#FFFFFF"/>
			<stop  offset="0.82" style="stop-color:#8E9BAA"/>
			<stop  offset="0.8924" style="stop-color:#808B98"/>
			<stop  offset="1" style="stop-color:#656D75"/>
		</linearGradient>
		<path style="fill:url(#SVGID_1_);" d="M32.75,60.0723H5.5654c-2.4072,0-4.3652-1.958-4.3652-4.3643V41.501
			c0-2.4063,1.958-4.3643,4.3652-4.3643H32.75c2.4072,0,4.3652,1.958,4.3652,4.3643v14.207
			C37.1152,58.1143,35.1572,60.0723,32.75,60.0723z"/>
	</g>
	<path style="opacity:0.75;fill:none;stroke:#0071BE;stroke-width:1.1;stroke-miterlimit:10;" d="M39.9043,17.6729v11.7285
		c0,0,4.292,4.5313,8.3457,4.0547V13.1865C48.25,13.1865,45.3887,11.9492,39.9043,17.6729z"/>
	<g style="opacity:0.3;">
		<linearGradient id="SVGID_2_" gradientUnits="userSpaceOnUse" x1="44.1123" y1="59.3633" x2="44.1123" y2="37.8457">
			<stop  offset="0" style="stop-color:#FFFFFF"/>
			<stop  offset="0.82" style="stop-color:#8E9BAA"/>
			<stop  offset="0.8924" style="stop-color:#808B98"/>
			<stop  offset="1" style="stop-color:#656D75"/>
		</linearGradient>
		<path style="fill:url(#SVGID_2_);" d="M47.6768,59.3633L47.6768,59.3633c-4.0537,0-7.9717-4.0879-8.1367-4.2617l-0.1504-0.1592
			V42.7734l0.1523-0.1582c3.9766-4.1494,6.6992-4.7695,7.9678-4.7695c0.5986,0,0.9326,0.1318,0.9932,0.1582l0.332,0.1436v21.1201
			l-0.4854,0.0566C48.125,59.3506,47.9014,59.3633,47.6768,59.3633z"/>
	</g>
</g>
</svg>
