<?xml version="1.0" encoding="utf-8"?>
<!-- Generator: Adobe Illustrator 16.0.3, SVG Export Plug-In . SVG Version: 6.00 Build 0)  -->
<!DOCTYPE svg PUBLIC "-//W3C//DTD SVG 1.1//EN" "http://www.w3.org/Graphics/SVG/1.1/DTD/svg11.dtd">
<svg version="1.1" id="圖層_1" xmlns="http://www.w3.org/2000/svg" xmlns:xlink="http://www.w3.org/1999/xlink" x="0px" y="0px"
	 width="50px" height="70px" viewBox="0 0 50 70" style="enable-background:new 0 0 50 70;" xml:space="preserve">
<g style="opacity:0.3;">
	<linearGradient id="SVGID_1_" gradientUnits="userSpaceOnUse" x1="16.3647" y1="65" x2="16.3647" y2="47.1172">
		<stop  offset="0" style="stop-color:#FFFFFF"/>
		<stop  offset="0.82" style="stop-color:#8E9BAA"/>
		<stop  offset="0.8924" style="stop-color:#808B98"/>
		<stop  offset="1" style="stop-color:#656D75"/>
	</linearGradient>
	<path style="fill:url(#SVGID_1_);" d="M25.6934,65H7.0342c-2.2705,0-4.1172-1.8467-4.1172-4.1172v-9.6475
		c0-2.2705,1.8467-4.1182,4.1172-4.1182h18.6592c2.2705,0,4.1182,1.8477,4.1182,4.1182v9.6475
		C29.8115,63.1533,27.9639,65,25.6934,65z"/>
</g>
<path style="opacity:0.75;fill:none;stroke:#0071BE;stroke-width:1.1;stroke-miterlimit:10;" d="M29.248,42.9824
	c0,1.9697-1.5977,3.5674-3.5688,3.5674H7.0205c-1.9702,0-3.5679-1.5977-3.5679-3.5674V24.3232c0-1.9707,1.5977-3.5679,3.5679-3.5679
	h18.6587c1.9712,0,3.5688,1.5972,3.5688,3.5679V42.9824z"/>
<path style="opacity:0.1;fill:#0071BE;" d="M27.3135,41.583c0,1.6738-1.3589,3.0322-3.0337,3.0322H8.4199
	c-1.6748,0-3.0327-1.3584-3.0327-3.0322V25.7227c0-1.6748,1.3579-3.0327,3.0327-3.0327h15.8599
	c1.6748,0,3.0337,1.3579,3.0337,3.0327V41.583z"/>
<path style="opacity:0.75;fill:#0071BE;" d="M26.2881,15.5762c-0.6353-0.0117-1.1323-0.5293-1.1196-1.1641
	c0.0107-0.6172,0.5371-1.123,1.1558-1.1113c2.7979,0.0469,5.4746,1.2285,7.4102,3.2412c1.9316,2.0088,3.0117,4.749,2.9541,7.5342
	c-0.0088,0.6221-0.5254,1.1191-1.1553,1.1133c-0.6309-0.0098-1.1318-0.5313-1.1162-1.1621c0.043-2.2012-0.7881-4.3281-2.3145-5.916
	C30.5713,16.5205,28.4912,15.6191,26.2881,15.5762L26.2881,15.5762z M26.3828,10.6465c-0.6343-0.0137-1.1313-0.5303-1.1157-1.1602
	c0.0088-0.6221,0.5254-1.1201,1.1567-1.1113c4.1016,0.0762,8.0254,1.793,10.8652,4.7471c2.8418,2.9541,4.3975,6.9482,4.3213,11.043
	c-0.0078,0.6221-0.5254,1.1191-1.1504,1.1143c-0.6182-0.0117-1.1279-0.5254-1.1113-1.1553
	c0.0596-3.4951-1.2695-6.8994-3.6992-9.4248C33.2119,12.166,29.8896,10.7188,26.3828,10.6465L26.3828,10.6465z M26.4717,5.7236
	c-0.6265-0.02-1.1245-0.5371-1.103-1.1631c0.0156-0.6309,0.5273-1.1157,1.1548-1.1118C31.9336,3.5581,37.0859,5.811,40.8369,9.71
	c3.751,3.8994,5.8086,9.1445,5.707,14.5557c-0.0195,0.626-0.5361,1.123-1.1631,1.1191c-0.626-0.0215-1.123-0.5381-1.1152-1.1621
	c0.0986-4.8301-1.7148-9.4639-5.0605-12.9424C35.8594,7.8008,31.2988,5.8096,26.4717,5.7236L26.4717,5.7236z"/>
</svg>
