<?xml version="1.0" encoding="utf-8"?>
<!-- Generator: Adobe Illustrator 16.0.3, SVG Export Plug-In . SVG Version: 6.00 Build 0)  -->
<!DOCTYPE svg PUBLIC "-//W3C//DTD SVG 1.1//EN" "http://www.w3.org/Graphics/SVG/1.1/DTD/svg11.dtd">
<svg version="1.1" id="圖層_1" xmlns="http://www.w3.org/2000/svg" xmlns:xlink="http://www.w3.org/1999/xlink" x="0px" y="0px"
	 width="50px" height="70px" viewBox="0 0 50 70" style="enable-background:new 0 0 50 70;" xml:space="preserve">
<g>
	<linearGradient id="SVGID_1_" gradientUnits="userSpaceOnUse" x1="25" y1="62.9443" x2="25" y2="35">
		<stop  offset="0" style="stop-color:#FFFFFF"/>
		<stop  offset="0.1292" style="stop-color:#F9FAFB"/>
		<stop  offset="0.2982" style="stop-color:#E9EBEE"/>
		<stop  offset="0.4894" style="stop-color:#CED3DA"/>
		<stop  offset="0.6953" style="stop-color:#A8B2BE"/>
		<stop  offset="0.82" style="stop-color:#8E9BAA"/>
		<stop  offset="0.8924" style="stop-color:#808B98"/>
		<stop  offset="1" style="stop-color:#656D75"/>
	</linearGradient>
	<path style="opacity:0.3;fill:url(#SVGID_1_);" d="M42.6055,37.3301h0.0098l0,0c1.4355,1.4414,2.3301,3.4375,2.3301,5.6318
		c0,1.9541-0.6973,3.7393-1.877,5.1328c-0.9238,1.0859-2.1348,1.9365-3.5137,2.4063c-0.2871,3.2988-1.7383,6.252-3.9414,8.4463
		c-2.459,2.4678-5.875,3.9971-9.6348,3.9971c-2.7539,0-5.3281-0.8184-7.4785-2.2412c-1.9668-1.2998-3.5723-3.0879-4.6543-5.1914
		c-2.3398-0.3486-4.4277-1.4814-5.9727-3.1182c-1.748-1.8477-2.8184-4.3447-2.8184-7.085c0-2.8311,1.1621-5.4199,3.0293-7.2793
		v-0.0166C9.9473,36.1504,12.5293,35,15.3809,35h21.6035h0.0449C39.207,35.0156,41.1758,35.9082,42.6055,37.3301L42.6055,37.3301z"
		/>
	<path style="opacity:0.75;fill:#0071BE;" d="M38.1035,32.9482h0.0313c1.4746,0,2.5762-0.6855,3.5352-1.6484l0,0
		c0.8691-1.0508,1.3848-2.1836,1.5586-3.6992c0.1523-1.3174-0.2422-2.5332-1.0195-3.459c-0.7969-0.9473-1.9199-1.6211-3.1934-1.8379
		c-0.8301-0.1328-1.3926-0.8423-1.3926-1.6382h-0.0078v-0.0225c0-3.1758-1.2891-6.0742-3.3867-8.1592
		c-2.0859-2.0859-4.9844-3.375-8.1621-3.375c-2.3496,0-4.5391,0.6973-6.3477,1.8877c-1.873,1.2227-3.3711,3.0107-4.2656,5.0986
		c-0.2734,0.6279-0.877,0.9922-1.5059,1.0068c-2.0684,0.1357-3.916,1.0596-5.248,2.4863c-1.3418,1.4287-1.9883,3.3267-1.9883,5.4438
		c0,2.1855,0.877,3.9902,2.3203,5.4141l0,0l0,0c1.4375,1.4375,3.2598,2.502,5.4453,2.502H38.1035L38.1035,32.9482z M13.834,24.0557
		c-0.3555-0.3643-0.3555-0.9531,0-1.3018c0.3555-0.3633,0.9473-0.3633,1.3008,0l1.8164,1.8174v-5.3447
		c0-0.5156,0.418-0.9238,0.916-0.9238c0.5156,0,0.9258,0.4082,0.9258,0.9238v5.3447l1.8164-1.8174
		c0.3613-0.3633,0.9355-0.3633,1.3008,0c0.3633,0.3486,0.3633,0.9375,0,1.3018l-3.375,3.376h-0.0156l-0.0313,0.0293v0.0156
		c-0.0293,0.0313-0.0742,0.0605-0.1055,0.0752l-0.0605,0.0449h-0.0156c-0.123,0.0752-0.2734,0.1074-0.4395,0.1074
		c-0.1504,0-0.3008-0.0322-0.4316-0.1074h-0.0137l-0.0527-0.0449c-0.0469-0.0146-0.0781-0.0439-0.1074-0.0752l-0.0059-0.0156
		l-0.0391-0.0293h-0.0156L13.834,24.0557L13.834,24.0557z M28.6973,23.2529c-0.3555,0.3633-0.9492,0.3633-1.293,0
		c-0.3672-0.3486-0.3672-0.9375,0-1.3018l3.3594-3.3604l0.0234-0.0146l0.0293-0.0459h0.0078
		c0.0313-0.0303,0.0684-0.0596,0.1074-0.0752l0.0586-0.0303l0.0078-0.0176c0.1289-0.0586,0.2813-0.1045,0.4316-0.1045
		c0.166,0,0.3105,0.0459,0.4395,0.1045l0.0137,0.0176l0.0625,0.0303c0.0293,0.0156,0.0762,0.0449,0.1055,0.0752l0,0l0.0293,0.0459
		l0.0156,0.0146l3.375,3.3604c0.3652,0.3643,0.3652,0.9531,0,1.3018c-0.3535,0.3633-0.9395,0.3633-1.3008,0l-1.8164-1.8135v5.3555
		c0,0.5-0.4082,0.9092-0.9238,0.9092c-0.498,0-0.9141-0.4092-0.9141-0.9092v-5.3555L28.6973,23.2529L28.6973,23.2529z
		 M42.6055,32.6699C41.1758,34.0918,39.207,34.9844,37.0293,35h-0.0449H15.3809c-2.8516,0-5.4336-1.1504-7.2969-3.0127v-0.0166
		c-1.8672-1.8594-3.0293-4.4482-3.0293-7.2793c0-2.7402,1.0703-5.2373,2.8184-7.085c1.5449-1.6367,3.6328-2.7695,5.9727-3.1182
		c1.082-2.1035,2.6875-3.8916,4.6543-5.1914c2.1504-1.4229,4.7246-2.2412,7.4785-2.2412c3.7598,0,7.1758,1.5293,9.6348,3.9971
		c2.2031,2.1943,3.6543,5.1475,3.9414,8.4463c1.3789,0.4697,2.5898,1.3203,3.5137,2.4063c1.1797,1.3936,1.877,3.1787,1.877,5.1328
		c0,2.1943-0.8945,4.1904-2.3301,5.6318l0,0H42.6055L42.6055,32.6699z"/>
</g>
</svg>
