<?xml version="1.0" encoding="utf-8"?>
<!-- Generator: Adobe Illustrator 16.0.3, SVG Export Plug-In . SVG Version: 6.00 Build 0)  -->
<!DOCTYPE svg PUBLIC "-//W3C//DTD SVG 1.1//EN" "http://www.w3.org/Graphics/SVG/1.1/DTD/svg11.dtd">
<svg version="1.1" id="圖層_1" xmlns="http://www.w3.org/2000/svg" xmlns:xlink="http://www.w3.org/1999/xlink" x="0px" y="0px"
	 width="50px" height="70px" viewBox="0 0 50 70" style="enable-background:new 0 0 50 70;" xml:space="preserve">
<g>
	<linearGradient id="SVGID_1_" gradientUnits="userSpaceOnUse" x1="25.0005" y1="52.3643" x2="25.0005" y2="49.6514">
		<stop  offset="0" style="stop-color:#FFFFFF"/>
		<stop  offset="0.82" style="stop-color:#8E9BAA"/>
		<stop  offset="0.8924" style="stop-color:#808B98"/>
		<stop  offset="1" style="stop-color:#656D75"/>
	</linearGradient>
	<rect x="6.8926" y="49.6514" style="opacity:0.3;fill:url(#SVGID_1_);" width="36.2148" height="2.7129"/>
	<g>
		<path style="opacity:0.75;fill:#0071BE;" d="M8.2881,17.6357h0.0342h33.3828c0.7754,0,1.4023,0.6318,1.4023,1.4014v0.0278v29.1978
			c0,0.7695-0.627,1.3887-1.4023,1.3887h-0.0273H8.2881c-0.7695,0-1.3955-0.6191-1.3955-1.3887v-0.041V19.0371
			C6.8926,18.2676,7.5186,17.6357,8.2881,17.6357L8.2881,17.6357z M30.1309,31.0195h0.0215h7.3359
			c0.4551,0,0.8242,0.3711,0.8242,0.8242v0.0273v7.3369c0,0.4541-0.3691,0.8242-0.8242,0.8242h-0.0254h-7.332
			c-0.4609,0-0.8389-0.3701-0.8389-0.8242v-0.0264v-7.3379C29.292,31.3906,29.6699,31.0195,30.1309,31.0195L30.1309,31.0195z
			 M36.6504,32.6816h-5.6875v5.6885h5.6875V32.6816L36.6504,32.6816z M25.375,31.0059c0.46,0,0.832,0.3711,0.832,0.8242
			c0,0.4668-0.3721,0.8379-0.832,0.8379H12.6387c-0.4678,0-0.8379-0.3711-0.8379-0.8379c0-0.4531,0.3701-0.8242,0.8379-0.8242
			H25.375L25.375,31.0059z M25.375,34.6738c0.46,0,0.8379,0.3721,0.8379,0.8379c0,0.4541-0.3779,0.8389-0.8379,0.8389H12.6387
			c-0.4678,0-0.8379-0.3848-0.8379-0.8389c0-0.4658,0.3701-0.8379,0.8379-0.8379H25.375L25.375,34.6738z M25.375,38.3564
			c0.46,0,0.832,0.3711,0.832,0.8379c0,0.4541-0.3721,0.8242-0.832,0.8242H12.6387c-0.4678,0-0.8379-0.3701-0.8379-0.8242
			c0-0.4668,0.3701-0.8379,0.8379-0.8379H25.375L25.375,38.3564z M37.4727,42.0527c0.4551,0,0.8242,0.3711,0.8242,0.8242
			c0,0.4678-0.3691,0.8379-0.8242,0.8379H12.624c-0.4678,0-0.8389-0.3701-0.8389-0.8379c0-0.4531,0.3711-0.8242,0.8389-0.8242
			H37.4727L37.4727,42.0527z M38.8564,20.8281c0.7695,0,1.3926,0.6323,1.3926,1.4019c0,0.769-0.623,1.3882-1.3926,1.3882
			S37.46,22.999,37.46,22.23C37.46,21.4604,38.0869,20.8281,38.8564,20.8281L38.8564,20.8281z M35.4404,20.8281
			c0.7695,0,1.3945,0.6323,1.3945,1.4019c0,0.769-0.625,1.3882-1.3945,1.3882s-1.3867-0.6191-1.3867-1.3882
			C34.0537,21.4604,34.6709,20.8281,35.4404,20.8281L35.4404,20.8281z M32.0342,20.8281c0.7695,0,1.3926,0.6323,1.3926,1.4019
			c0,0.769-0.623,1.3882-1.3926,1.3882s-1.3965-0.6191-1.3965-1.3882C30.6377,21.4604,31.2646,20.8281,32.0342,20.8281
			L32.0342,20.8281z M8.0254,25.376h33.9434V18.998H8.0254V25.376L8.0254,25.376z M41.9688,27.084H8.0254v21.0518h33.9434V27.084
			L41.9688,27.084z"/>
	</g>
</g>
</svg>
