<?xml version="1.0" encoding="utf-8"?>
<!-- Generator: Adobe Illustrator 16.0.3, SVG Export Plug-In . SVG Version: 6.00 Build 0)  -->
<!DOCTYPE svg PUBLIC "-//W3C//DTD SVG 1.1//EN" "http://www.w3.org/Graphics/SVG/1.1/DTD/svg11.dtd">
<svg version="1.1" id="圖層_1" xmlns="http://www.w3.org/2000/svg" xmlns:xlink="http://www.w3.org/1999/xlink" x="0px" y="0px"
	 width="50px" height="70px" viewBox="0 0 50 70" style="enable-background:new 0 0 50 70;" xml:space="preserve">
<g>
	
		<linearGradient id="SVGID_1_" gradientUnits="userSpaceOnUse" x1="25.1963" y1="65.2334" x2="25.1963" y2="33.7539" gradientTransform="matrix(0.9931 -0.1177 0.1177 0.9931 -4.3506 4.5432)">
		<stop  offset="0" style="stop-color:#FFFFFF"/>
		<stop  offset="0.82" style="stop-color:#8E9BAA"/>
		<stop  offset="0.8924" style="stop-color:#808B98"/>
		<stop  offset="1" style="stop-color:#656D75"/>
	</linearGradient>
	<path style="opacity:0.3;fill:url(#SVGID_1_);" d="M23.0703,65.543c-0.4609,0.8438-0.7158,1.2637-1.6533,1.582
		c-0.3555,0.1143-0.709,0.1602-1.0654,0.1377c-0.0283-0.0029-0.0645-0.0049-0.0986-0.0068
		c-0.3828-0.0371-0.7588-0.1689-1.1123-0.375c-0.4141-0.2461-0.8623-0.5742-1.3105-0.9941l0,0l0,0
		c-0.4482-0.4072-0.8984-0.918-1.333-1.5469c-1.8096-2.623-2.5371-5.7783-2.4072-9.0332c0.1279-3.4609,1.2178-7.0391,2.9658-10.2393
		c1.7637-3.1943,4.2041-6.0322,7.0557-7.9932c2.6836-1.8584,5.7324-2.9375,8.917-2.8105c0.7305,0.0283,1.3877,0.124,1.9531,0.2813
		c0.0254,0.0049,0.0449,0.0078,0.0684,0.0137c0.5928,0.1484,1.1143,0.3633,1.5439,0.582c0.3613,0.1816,0.6738,0.4336,0.9111,0.7324
		l0,0c0.2373,0.3076,0.4082,0.6592,0.5068,1.0547c0.0977,0.3945,0.1084,0.793,0.0293,1.1699l0,0
		c-0.0664,0.3398-0.207,0.668-0.4072,0.9785c-0.0205,0.0303-0.042,0.0566-0.0664,0.0869c-1.3584,1.8838-2.7188,3.7686-4.0859,5.6416
		l0,0c-0.207,0.291-0.4551,0.5234-0.7363,0.6973c-0.0186,0.0156-0.0381,0.0332-0.0586,0.0391
		c-0.291,0.1748-0.623,0.2959-0.9834,0.3545c-0.0107,0.0029-0.0273,0.0088-0.043,0.0127c-0.3682,0.0479-0.7363,0.0313-1.083-0.0625
		l0,0c-0.3477-0.0938-0.6709-0.2637-0.9658-0.4873l0,0c-0.7021-0.541-1.4033-1.082-2.0977-1.623
		c-0.3262-0.0449-1.0039-0.0068-1.6309,0.7725c-0.9971,1.2373-1.8779,2.5586-2.6533,3.9531l0,0l0,0
		c-0.7637,1.3896-1.4053,2.8457-1.916,4.3574c-0.3184,0.9502,0.0137,1.542,0.2227,1.791c0.8066,0.291,1.6123,0.584,2.4189,0.875
		c0.0234,0.0059,0.0518,0.0215,0.0752,0.0254c0.3242,0.1113,0.6143,0.2793,0.8672,0.5039c0.0156,0.0166,0.04,0.0332,0.0625,0.0508
		c0.2637,0.2441,0.4736,0.5488,0.627,0.8809c0.1572,0.3457,0.2422,0.709,0.2451,1.0645c0.0068,0.3174-0.0439,0.6523-0.1631,0.9736
		c-0.0088,0.0264-0.0195,0.0635-0.0313,0.0889C24.7822,61.2344,23.9287,63.3936,23.0703,65.543L23.0703,65.543z"/>
	<path style="opacity:0.75;fill:#0071BE;" d="M19.8408,4.1626c1.1055,2.0347,2.208,4.0791,3.3105,6.1245
		c0.0156,0.0239,0.0303,0.0601,0.043,0.0854c0.1553,0.3037,0.2461,0.6313,0.2764,0.9478c0.0381,0.3525-0.0029,0.7241-0.1182,1.0845
		c-0.1143,0.3486-0.2861,0.6768-0.5195,0.9502c-0.0205,0.0186-0.042,0.0386-0.0557,0.0571
		c-0.2256,0.2529-0.4932,0.4541-0.8018,0.603c-0.0234,0.0059-0.0488,0.0249-0.0713,0.0327c-0.7676,0.3848-1.5332,0.77-2.2998,1.1548
		c-0.1787,0.271-0.4385,0.8979-0.0107,1.8047c0.6855,1.4409,1.4941,2.811,2.415,4.1011l0,0l0,0
		c0.9346,1.2939,1.9648,2.502,3.1006,3.6143c0.7148,0.6992,1.3916,0.6572,1.7109,0.5742c0.626-0.6191,1.2588-1.2383,1.8916-1.8584
		l0,0c0.2666-0.2568,0.5674-0.4639,0.9014-0.5977l0,0c0.334-0.1338,0.6973-0.1934,1.0684-0.1895
		c0.0166,0.002,0.0332,0.0059,0.0439,0.0078c0.3652,0.0156,0.709,0.0967,1.0195,0.2354c0.0205,0.0039,0.042,0.0195,0.0625,0.0332
		c0.2988,0.1387,0.5732,0.3398,0.8135,0.6055l0,0c1.5771,1.6992,3.1504,3.4102,4.7207,5.1211
		c0.0283,0.0273,0.0527,0.0508,0.0762,0.0791c0.2363,0.2842,0.4141,0.5938,0.5205,0.9229l0,0
		c0.123,0.3662,0.1582,0.7617,0.1074,1.166s-0.1797,0.7734-0.3789,1.1064l0,0c-0.2002,0.3252-0.4814,0.6123-0.8184,0.835
		c-0.4014,0.2676-0.8936,0.542-1.4639,0.7598c-0.0234,0.0078-0.043,0.0137-0.0674,0.0215c-0.543,0.2227-1.1836,0.3945-1.9053,0.5088
		c-3.1484,0.501-6.3027-0.2119-9.1865-1.7422c-3.0625-1.6104-5.8203-4.1426-7.9473-7.1064
		c-2.1123-2.9727-3.6162-6.3979-4.1504-9.8188c-0.5127-3.2173-0.1611-6.4365,1.3271-9.2539
		c0.3574-0.6758,0.7451-1.2358,1.1416-1.6934l0,0l0,0c0.3955-0.4697,0.8018-0.8477,1.1846-1.1411
		c0.3262-0.2466,0.6846-0.4209,1.0605-0.5034c0.0342-0.0054,0.0693-0.0112,0.0967-0.0176c0.3516-0.0645,0.708-0.0605,1.0752,0.0117
		C18.9814,2.9941,19.2842,3.3794,19.8408,4.1626L19.8408,4.1626z"/>
</g>
</svg>
