<?xml version="1.0" encoding="utf-8"?>
<!-- Generator: Adobe Illustrator 16.0.3, SVG Export Plug-In . SVG Version: 6.00 Build 0)  -->
<!DOCTYPE svg PUBLIC "-//W3C//DTD SVG 1.1//EN" "http://www.w3.org/Graphics/SVG/1.1/DTD/svg11.dtd">
<svg version="1.1" id="圖層_1" xmlns="http://www.w3.org/2000/svg" xmlns:xlink="http://www.w3.org/1999/xlink" x="0px" y="0px"
	 width="50px" height="50px" viewBox="0 0 50 50" style="enable-background:new 0 0 50 50;" xml:space="preserve">
<g>
	<path style="opacity:0.75;fill:#0071BE;" d="M22.1094,33.9922L22.1094,33.9922h-1.6563c-0.4473,0-0.8223-0.3633-0.8223-0.8145
		c0-0.4609,0.375-0.832,0.8223-0.832h1.6563 M10.4727,5.7246H23.834c1.1152,0,2.1309,0.4629,2.8721,1.1992
		c0.7344,0.7344,1.1846,1.7568,1.1846,2.873V18.54c0,1.1172-0.4561,2.1377-1.1982,2.874h0.0078
		c-0.7354,0.7354-1.751,1.1963-2.8662,1.1963h-5.8574v0.6279c0,0.4482-0.3682,0.8311-0.8291,0.8311
		c-0.4512,0-0.8262-0.3828-0.8262-0.8311v-0.6279h-5.8486c-1.1162,0-2.1377-0.4609-2.874-1.1963
		c-0.7363-0.7363-1.1973-1.7568-1.1973-2.874V9.7969c0-1.1299,0.4609-2.1387,1.1973-2.873l0.084-0.082
		C8.4033,6.1475,9.3965,5.7246,10.4727,5.7246L10.4727,5.7246z M16.3213,25.7441c0-0.4639,0.375-0.832,0.8262-0.832
		c0.4609,0,0.8291,0.3682,0.8291,0.832v0.8027c0,0.4492-0.3682,0.8301-0.8291,0.8301c-0.4512,0-0.8262-0.3809-0.8262-0.8301V25.7441
		L16.3213,25.7441z M16.3213,29.0527c0-0.4629,0.375-0.832,0.8262-0.832c0.4609,0,0.8291,0.3691,0.8291,0.832v0.8027
		c0,0.4648-0.3682,0.8301-0.8291,0.8301c-0.4512,0-0.8262-0.3652-0.8262-0.8301V29.0527L16.3213,29.0527z M16.3213,32.3613
		c0-0.4492,0.375-0.832,0.8262-0.832c0.4492,0,0.8154,0.3691,0.8291,0.8164c0.4492,0.0156,0.8037,0.3828,0.8037,0.832
		c0,0.4512-0.3682,0.8145-0.8311,0.8145h-0.7754h-0.0264l0,0h-0.0156l0,0h-0.0273l0,0H17.084h-0.0059h-0.0146l0,0H17.043l0,0
		l-0.0186-0.0117l0,0h-0.0215l0,0h-0.0205l0,0h-0.0205h-0.0059l-0.0146-0.0137l0,0h-0.0215l0,0h-0.0186l0,0l-0.0137-0.0137l0,0
		h-0.0273l0,0l-0.0137-0.0117l0,0l-0.0225-0.0137h-0.0059h-0.0117l0,0L16.792,33.916l0,0h-0.0127h-0.0078l-0.0205-0.0195l0,0
		l-0.0127-0.0117c-0.2451-0.1348-0.417-0.4219-0.417-0.707v-0.0664V32.3613L16.3213,32.3613z"/>
	<path style="fill:#FFFFFF;" d="M16.4072,21.666h-5.2363c-0.999,0-1.9131-0.4131-2.5723-1.0713
		c-0.6592-0.6592-1.0723-1.5732-1.0723-2.5732v-7.8271c0-1.0117,0.4131-1.915,1.0723-2.5723l0.0752-0.0742
		c0.6445-0.6211,1.5342-1,2.4971-1l0,0h11.9629c0.998,0,1.9082,0.415,2.5713,1.0742c0.6572,0.6572,1.0605,1.5723,1.0605,2.5723
		v7.8271c0,1-0.4082,1.9141-1.0732,2.5732h0.0078c-0.6582,0.6582-1.5684,1.0713-2.5664,1.0713h-5.2441H16.4072z"/>
	<path style="opacity:0.75;fill:#0071BE;" d="M43.5986,31.4629c0-1.1172-0.4502-2.1387-1.1846-2.873
		c-0.7412-0.7363-1.7568-1.1992-2.8721-1.1992H26.1807c-1.0762,0-2.0693,0.4219-2.79,1.1172l-0.084,0.082
		c-0.7363,0.7344-1.1973,1.7422-1.1973,2.873v8.7422c0,1.1172,0.4609,2.1387,1.1973,2.875c0.7363,0.7344,1.7578,1.1953,2.874,1.1953
		h5.8486h1.6553h5.8574c1.1152,0,2.1309-0.4609,2.8662-1.1953h-0.0078c0.7422-0.7363,1.1982-1.7578,1.1982-2.875V31.4629z"/>
	<path style="fill:#FFFFFF;" d="M32.1152,43.3916h-5.2363c-0.999,0-1.9131-0.4121-2.5723-1.0703
		c-0.6592-0.6592-1.0723-1.5732-1.0723-2.5732v-7.8281c0-1.0117,0.4131-1.9141,1.0723-2.5723l0.0752-0.0732
		c0.6445-0.6221,1.5342-1,2.4971-1l0,0h11.9629c0.998,0,1.9082,0.415,2.5713,1.0732c0.6572,0.6582,1.0605,1.5732,1.0605,2.5723
		v7.8281c0,1-0.4082,1.9141-1.0732,2.5732h0.0078c-0.6582,0.6582-1.5684,1.0703-2.5664,1.0703h-5.2441H32.1152z"/>
	<rect x="7.5391" y="17.5" style="opacity:0.75;fill:#0071BE;" width="19.2002" height="0.9375"/>
	<rect x="23.252" y="39.376" style="opacity:0.75;fill:#0071BE;" width="19.2002" height="0.9375"/>
</g>
</svg>
